<svg xmlns="http://www.w3.org/2000/svg" viewBox="2338.2 2927.1 147.5 147.5"><defs><style>.a{fill:#fff;}</style></defs><path class="a" d="M481.3,99.9h-7.2c-4.1,0-7.4,2.6-7.4,5.9,0,3.2,3.3,5.9,7.4,5.9h7.2c4.1,0,7.4-2.6,7.4-5.9C488.6,102.6,485.3,99.9,481.3,99.9ZM415,65.3a40.5,40.5,0,1,0,40.5,40.5A40.332,40.332,0,0,0,415,65.3Zm0,70a29.5,29.5,0,1,1,29.5-29.5A29.49,29.49,0,0,1,415,135.3Zm-51.6-29.5c0-3.2-3.3-5.9-7.4-5.9h-7.4c-4.1,0-7.4,2.6-7.4,5.9,0,3.2,3.3,5.9,7.4,5.9H356C360.1,111.7,363.4,109.1,363.4,105.8ZM415,54.3c3.2,0,5.9-3.3,5.9-7.4V39.5c0-4.1-2.6-7.4-5.9-7.4s-5.9,3.3-5.9,7.4v7.4C409.1,51,411.7,54.3,415,54.3Zm0,103.1c-3.3,0-5.9,3.3-5.9,7.4v7.4c0,4.1,2.6,7.4,5.9,7.4,3.2,0,5.9-3.3,5.9-7.4v-7.4C420.9,160.7,418.2,157.4,415,157.4Zm54.2-97.5c2.9-2.9,3.3-7.1,1-9.4s-6.5-1.8-9.4,1.1c-.8.8-4.4,4.4-5.2,5.1-2.9,2.9-3.3,7.1-1,9.4s6.5,1.8,9.4-1.1C464.9,64.3,468.4,60.7,469.2,59.9ZM365.9,146.6l-5.2,5.2c-2.9,2.9-3.3,7.1-1,9.4s6.5,1.8,9.4-1c.8-.8,4.4-4.4,5.2-5.1,2.9-2.9,3.3-7.1,1-9.4S368.7,143.7,365.9,146.6Zm3.1-95c-2.9-2.9-7.1-3.4-9.4-1.1s-1.8,6.5,1,9.4c.8.8,4.4,4.4,5.2,5.1,2.9,2.9,7.1,3.4,9.4,1.1s1.8-6.5-1-9.4C373.4,55.9,369.8,52.4,369,51.6Zm86.7,103.3c.8.8,4.4,4.4,5.2,5.1,2.9,2.9,7.1,3.3,9.4,1.1,2.3-2.3,1.8-6.5-1-9.4l-5.1-5.1c-2.9-2.9-7.1-3.4-9.4-1.1C452.4,147.9,452.9,152.1,455.7,154.9Z" transform="translate(1997 2895)"/></svg>