<svg xmlns="http://www.w3.org/2000/svg" viewBox="1517 2155 278.1 243"><defs><style>.a{fill:#fff;}</style></defs><g transform="translate(1239 1890.6)"><path class="a" d="M489.7,315a69.866,69.866,0,0,0-11.3.9c-9.1-29.8-37.4-51.5-70.9-51.5-40.9,0-74,32.4-74,72.3a72.031,72.031,0,0,0,.8,10.5,58.474,58.474,0,0,0-6-.4c-27.8,0-50.3,22-50.3,49.2s22.5,49.2,50.3,49.2h26.1V434h-8.3c-22.2,0-40.2-17.6-40.2-39.3s18-39.3,40.2-39.3a38.641,38.641,0,0,1,4.793.3,57.271,57.271,0,0,1-.593-8.4c0-31.9,26.5-57.8,59.1-57.8,26.8,0,49.3,17.4,56.6,41.2a52.934,52.934,0,0,1,9-.7c29.4,0,53.2,23.3,53.2,52,0,27.5-21.9,50.1-49.6,51.9v11.2h10.9c36.8,0,66.6-29.1,66.6-65.1C556.2,344.1,526.4,315,489.7,315Z"/></g><circle class="a" cx="15.5" cy="15.5" r="15.5" transform="translate(1597 2336)"/><circle class="a" cx="15.5" cy="15.5" r="15.5" transform="translate(1641 2336)"/><circle class="a" cx="15.5" cy="15.5" r="15.5" transform="translate(1685 2336)"/><circle class="a" cx="15.5" cy="15.5" r="15.5" transform="translate(1618 2367)"/><circle class="a" cx="15.5" cy="15.5" r="15.5" transform="translate(1662 2367)"/></svg>