<svg xmlns="http://www.w3.org/2000/svg" viewBox="5017 210 278.2 180.8"><defs><style>.a{fill:#212121;}</style></defs><path class="a" d="M211.6,50.6a69.871,69.871,0,0,0-11.3.9C191.2,21.7,162.9,0,129.5,0c-40.9,0-74,32.4-74,72.3a72.035,72.035,0,0,0,.8,10.5,58.485,58.485,0,0,0-6-.4C22.5,82.4,0,104.4,0,131.6s22.5,49.2,50.3,49.2H211.6c36.8,0,66.6-29.1,66.6-65.1C278.1,79.7,248.3,50.6,211.6,50.6ZM197,169.7H68.1c-22.2,0-40.2-17.6-40.2-39.3s18-39.3,40.2-39.3a38.662,38.662,0,0,1,4.8.3,57.271,57.271,0,0,1-.6-8.4c0-31.9,26.5-57.8,59.1-57.8,26.8,0,49.3,17.4,56.6,41.2a52.934,52.934,0,0,1,9-.7c29.4,0,53.2,23.3,53.2,52S226.4,169.7,197,169.7Z" transform="translate(5017 210)"/></svg>