<svg xmlns="http://www.w3.org/2000/svg" viewBox="2562.7 2291.1 259.2 165.1"><defs><style>.a{fill:#212121;}</style></defs><g transform="translate(1937 2004)"><path class="a" d="M782.2,314.7c2.4,2.4,5.9,2.8,7.8.9s1.5-5.4-.9-7.8l-4.3-4.3c-2.4-2.4-5.9-2.8-7.8-.9s-1.5,5.4.9,7.8Z"/><path class="a" d="M864.3,382.9a6.165,6.165,0,0,0-6.7-1.7,51.979,51.979,0,0,1,2.2,11.1l1.8,1.8c2.4,2.4,5.9,2.8,7.8.9s1.5-5.4-.9-7.8C867.9,386.5,865,383.5,864.3,382.9Z"/><path class="a" d="M878.7,343.9h-6c-3.4,0-6.2,2.2-6.2,4.9s2.8,4.9,6.2,4.9h6c3.4,0,6.2-2.2,6.2-4.9C884.8,346.1,882.1,343.9,878.7,343.9Z"/><path class="a" d="M799.4,342.6a24.582,24.582,0,0,1,48.4,6.1,25.106,25.106,0,0,1-2.7,11.3c.9.9,1.7,1.9,2.6,2.9a55.958,55.958,0,0,1,3.6,4.9A33.924,33.924,0,1,0,791.8,336a74.574,74.574,0,0,1,2.7,7.1C796.1,343,797.8,342.8,799.4,342.6Z"/><path class="a" d="M823.3,305.7c2.7,0,4.9-2.8,4.9-6.2v-6.2c0-3.4-2.2-6.2-4.9-6.2s-4.9,2.8-4.9,6.2v6.2C818.3,303,820.6,305.7,823.3,305.7Z"/><path class="a" d="M864.3,314.7l4.3-4.3c2.4-2.4,2.8-5.9.9-7.8s-5.4-1.5-7.8.9l-4.3,4.3c-2.4,2.4-2.8,5.9-.9,7.8S861.9,317.1,864.3,314.7Z"/><path class="a" d="M855.8,376.3c-.6-1.4-1.3-2.8-2-4.2-.8-1.4-1.6-2.8-2.5-4.2a55.954,55.954,0,0,0-3.6-4.9c-.8-1-1.7-1.9-2.6-2.9a56.557,56.557,0,0,0-41.2-17.6c-1.5,0-3.1.1-4.6.2a38.592,38.592,0,0,0-4.9.6,47.051,47.051,0,0,0-2.7-7.1c-.2-.3-.3-.7-.5-1a61.5,61.5,0,0,0-5.5-9.3c-1-1.4-2-2.7-3.1-4a62.548,62.548,0,0,0-47.9-22c-34.4,0-62.3,27.3-62.3,60.9a52.565,52.565,0,0,0,.7,8.9,41.927,41.927,0,0,0-5-.3c-23.4,0-42.4,18.6-42.4,41.4,0,22.9,19,41.4,42.4,41.4H804c31,0,56.1-24.6,56.1-54.8,0-1.7-.1-3.3-.2-4.9a57.428,57.428,0,0,0-2.2-11.1A49.727,49.727,0,0,0,855.8,376.3Zm-64.1,66.5H683.1c-18.7,0-33.9-14.8-33.9-33.1s15.2-33.1,33.9-33.1a25.954,25.954,0,0,1,4,.3,55.19,55.19,0,0,1-.5-7.1c0-26.9,22.3-48.7,49.8-48.7a50.173,50.173,0,0,1,40,19.6,29.758,29.758,0,0,1,2,2.9,45.318,45.318,0,0,1,5.7,12.2c1.2-.2,2.5-.4,3.8-.5a14.768,14.768,0,0,1,2.1-.1h1.7a41.459,41.459,0,0,1,7.9.7,44.915,44.915,0,0,1,28.2,17.2,46.706,46.706,0,0,1,3.8,6,24.021,24.021,0,0,1,1.1,2.3,41.229,41.229,0,0,1,2.4,6.7l.3,1.2a43.679,43.679,0,0,1,1.1,9.7C836.6,423.1,816.5,442.8,791.7,442.8Z"/></g></svg>