<svg xmlns="http://www.w3.org/2000/svg" viewBox="2275 3159.4 278.1 226.518"><defs><style>.a{fill:#fff;}</style></defs><g transform="translate(1997 2895)"><path class="a" d="M489.7,315a69.87,69.87,0,0,0-11.3.9c-9.1-29.8-37.4-51.5-70.9-51.5-40.9,0-74,32.4-74,72.3a72.035,72.035,0,0,0,.8,10.5,58.48,58.48,0,0,0-6-.4c-27.8,0-50.3,22-50.3,49.2s22.5,49.2,50.3,49.2h26.1V434h-8.3c-22.2,0-40.2-17.6-40.2-39.3s18-39.3,40.2-39.3a38.665,38.665,0,0,1,4.8.3,57.273,57.273,0,0,1-.6-8.4c0-31.9,26.5-57.8,59.1-57.8,26.8,0,49.3,17.4,56.6,41.2a52.934,52.934,0,0,1,9-.7c29.4,0,53.2,23.3,53.2,52,0,27.5-21.9,50.1-49.6,51.9v11.2h10.9c36.8,0,66.6-29.1,66.6-65.1C556.2,344.1,526.4,315,489.7,315Z"/><path class="a" d="M361.9,490.2h0a8.579,8.579,0,0,1-4.5-11.3l27.8-64.3a8.579,8.579,0,0,1,11.3-4.5h0a8.579,8.579,0,0,1,4.5,11.3l-27.8,64.3A8.579,8.579,0,0,1,361.9,490.2Z"/><path class="a" d="M401.6,481.1h0A6.938,6.938,0,0,1,398,472l21.2-49.1a6.938,6.938,0,0,1,9.1-3.6h0a6.938,6.938,0,0,1,3.6,9.1l-21.2,49.1A6.855,6.855,0,0,1,401.6,481.1Z"/><path class="a" d="M436.7,490.2h0a8.579,8.579,0,0,1-4.5-11.3L460,414.6a8.579,8.579,0,0,1,11.3-4.5h0a8.579,8.579,0,0,1,4.5,11.3L448,485.7A8.546,8.546,0,0,1,436.7,490.2Z"/></g></svg>