<svg xmlns="http://www.w3.org/2000/svg" viewBox="1106 1835.4 278.1 278.305"><defs><style>.a{fill:#fff;}.b{fill:#212121;}</style></defs><g transform="translate(828 1571)"><path class="a" d="M489.7,315a69.87,69.87,0,0,0-11.3.9c-9.1-29.8-37.4-51.5-70.9-51.5-40.9,0-74,32.4-74,72.3a72.035,72.035,0,0,0,.8,10.5,58.48,58.48,0,0,0-6-.4c-27.8,0-50.3,22-50.3,49.2s22.5,49.2,50.3,49.2h26.1V434h-8.3c-22.2,0-40.2-17.6-40.2-39.3s18-39.3,40.2-39.3a38.665,38.665,0,0,1,4.8.3,57.273,57.273,0,0,1-.6-8.4c0-31.9,26.5-57.8,59.1-57.8,26.8,0,49.3,17.4,56.6,41.2a52.934,52.934,0,0,1,9-.7c29.4,0,53.2,23.3,53.2,52,0,27.5-21.9,50.1-49.6,51.9v11.2h10.9c36.8,0,66.6-29.1,66.6-65.1C556.2,344.1,526.4,315,489.7,315Z"/><path class="a" d="M401.6,481.1h0A6.938,6.938,0,0,1,398,472l21.2-49.1a6.938,6.938,0,0,1,9.1-3.6h0a6.938,6.938,0,0,1,3.6,9.1l-21.2,49.1A6.855,6.855,0,0,1,401.6,481.1Z"/></g><g transform="translate(125 1587)"><path class="b" d="M1079.8,448.3h0a3.9,3.9,0,0,1-3.9-3.9V414a3.9,3.9,0,0,1,3.9-3.9h0a3.9,3.9,0,0,1,3.9,3.9v30.4A3.971,3.971,0,0,1,1079.8,448.3Z"/><path class="b" d="M1063.3,428.9h0a3.691,3.691,0,0,1,3.7-3.7h28.3a3.691,3.691,0,0,1,3.7,3.7h0a3.691,3.691,0,0,1-3.7,3.7H1067A3.756,3.756,0,0,1,1063.3,428.9Z"/><path class="b" d="M1068.5,441.8h0a3.744,3.744,0,0,1,0-5.2l20-20a3.744,3.744,0,0,1,5.2,0h0a3.744,3.744,0,0,1,0,5.2l-20,20A3.744,3.744,0,0,1,1068.5,441.8Z"/><path class="b" d="M1093.7,442.7h0a4.046,4.046,0,0,1-5.6,0l-21.5-21.5a4.047,4.047,0,0,1,0-5.6h0a4.046,4.046,0,0,1,5.6,0l21.5,21.5A4.047,4.047,0,0,1,1093.7,442.7Z"/></g><g transform="translate(203 1598)"><path class="b" d="M1079.8,448.3h0a3.9,3.9,0,0,1-3.9-3.9V414a3.9,3.9,0,0,1,3.9-3.9h0a3.9,3.9,0,0,1,3.9,3.9v30.4A3.971,3.971,0,0,1,1079.8,448.3Z"/><path class="b" d="M1063.3,428.9h0a3.691,3.691,0,0,1,3.7-3.7h28.3a3.691,3.691,0,0,1,3.7,3.7h0a3.691,3.691,0,0,1-3.7,3.7H1067A3.756,3.756,0,0,1,1063.3,428.9Z"/><path class="b" d="M1068.5,441.8h0a3.744,3.744,0,0,1,0-5.2l20-20a3.744,3.744,0,0,1,5.2,0h0a3.744,3.744,0,0,1,0,5.2l-20,20A3.744,3.744,0,0,1,1068.5,441.8Z"/><path class="b" d="M1093.7,442.7h0a4.046,4.046,0,0,1-5.6,0l-21.5-21.5a4.047,4.047,0,0,1,0-5.6h0a4.046,4.046,0,0,1,5.6,0l21.5,21.5A4.047,4.047,0,0,1,1093.7,442.7Z"/></g><path class="b" d="M489.7,315a69.87,69.87,0,0,0-11.3.9c-9.1-29.8-37.4-51.5-70.9-51.5-40.9,0-74,32.4-74,72.3a72.035,72.035,0,0,0,.8,10.5,58.48,58.48,0,0,0-6-.4c-27.8,0-50.3,22-50.3,49.2s22.5,49.2,50.3,49.2h26.1V434h-8.3c-22.2,0-40.2-17.6-40.2-39.3s18-39.3,40.2-39.3a38.665,38.665,0,0,1,4.8.3,57.273,57.273,0,0,1-.6-8.4c0-31.9,26.5-57.8,59.1-57.8,26.8,0,49.3,17.4,56.6,41.2a52.934,52.934,0,0,1,9-.7c29.4,0,53.2,23.3,53.2,52,0,27.5-21.9,50.1-49.6,51.9v11.2h10.9c36.8,0,66.6-29.1,66.6-65.1C556.2,344.1,526.4,315,489.7,315Z" transform="translate(828 1571)"/><path class="b" d="M401.6,481.1h0A6.938,6.938,0,0,1,398,472l21.2-49.1a6.938,6.938,0,0,1,9.1-3.6h0a6.938,6.938,0,0,1,3.6,9.1l-21.2,49.1A6.855,6.855,0,0,1,401.6,481.1Z" transform="translate(828 1571)"/><path class="b" d="M401.6,481.1h0A6.938,6.938,0,0,1,398,472l21.2-49.1a6.938,6.938,0,0,1,9.1-3.6h0a6.938,6.938,0,0,1,3.6,9.1l-21.2,49.1A6.855,6.855,0,0,1,401.6,481.1Z" transform="translate(750 1608)"/><path class="b" d="M401.6,481.1h0A6.938,6.938,0,0,1,398,472l21.2-49.1a6.938,6.938,0,0,1,9.1-3.6h0a6.938,6.938,0,0,1,3.6,9.1l-21.2,49.1A6.855,6.855,0,0,1,401.6,481.1Z" transform="translate(870 1632)"/><g transform="translate(172 1643)"><path class="b" d="M1079.8,448.3h0a3.9,3.9,0,0,1-3.9-3.9V414a3.9,3.9,0,0,1,3.9-3.9h0a3.9,3.9,0,0,1,3.9,3.9v30.4A3.971,3.971,0,0,1,1079.8,448.3Z"/><path class="b" d="M1063.3,428.9h0a3.691,3.691,0,0,1,3.7-3.7h28.3a3.691,3.691,0,0,1,3.7,3.7h0a3.691,3.691,0,0,1-3.7,3.7H1067A3.756,3.756,0,0,1,1063.3,428.9Z"/><path class="b" d="M1068.5,441.8h0a3.744,3.744,0,0,1,0-5.2l20-20a3.744,3.744,0,0,1,5.2,0h0a3.744,3.744,0,0,1,0,5.2l-20,20A3.744,3.744,0,0,1,1068.5,441.8Z"/><path class="b" d="M1093.7,442.7h0a4.046,4.046,0,0,1-5.6,0l-21.5-21.5a4.047,4.047,0,0,1,0-5.6h0a4.046,4.046,0,0,1,5.6,0l21.5,21.5A4.047,4.047,0,0,1,1093.7,442.7Z"/></g><g transform="translate(119 1641)"><path class="b" d="M1079.8,448.3h0a3.9,3.9,0,0,1-3.9-3.9V414a3.9,3.9,0,0,1,3.9-3.9h0a3.9,3.9,0,0,1,3.9,3.9v30.4A3.971,3.971,0,0,1,1079.8,448.3Z"/><path class="b" d="M1063.3,428.9h0a3.691,3.691,0,0,1,3.7-3.7h28.3a3.691,3.691,0,0,1,3.7,3.7h0a3.691,3.691,0,0,1-3.7,3.7H1067A3.756,3.756,0,0,1,1063.3,428.9Z"/><path class="b" d="M1068.5,441.8h0a3.744,3.744,0,0,1,0-5.2l20-20a3.744,3.744,0,0,1,5.2,0h0a3.744,3.744,0,0,1,0,5.2l-20,20A3.744,3.744,0,0,1,1068.5,441.8Z"/><path class="b" d="M1093.7,442.7h0a4.046,4.046,0,0,1-5.6,0l-21.5-21.5a4.047,4.047,0,0,1,0-5.6h0a4.046,4.046,0,0,1,5.6,0l21.5,21.5A4.047,4.047,0,0,1,1093.7,442.7Z"/></g></svg>