<svg xmlns="http://www.w3.org/2000/svg" viewBox="2950.8 3173.1 209.1 170.2"><defs><style>.a{fill:#fff;}</style></defs><g transform="translate(1997 2895)"><path class="a" d="M1112.9,316.2a47.963,47.963,0,0,0-8.5.7,55.567,55.567,0,0,0-53.3-38.8c-30.7,0-55.6,24.3-55.6,54.4a51.56,51.56,0,0,0,.6,7.9,34.01,34.01,0,0,0-4.5-.3c-20.9,0-37.8,16.6-37.8,37s16.9,37,37.8,37h19.6v-8.3H1005c-16.7,0-30.2-13.2-30.2-29.6,0-16.3,13.5-29.5,30.2-29.5,1.2,0,2.4.1,3.6.2a44.575,44.575,0,0,1-.5-6.3c0-24,19.9-43.4,44.5-43.4a44.431,44.431,0,0,1,42.6,31,37.4,37.4,0,0,1,6.8-.6c22.1,0,40,17.5,40,39.1,0,20.7-16.5,37.6-37.3,39v8.4h8.2c27.6,0,50-21.9,50-48.9C1162.9,338.1,1140.5,316.2,1112.9,316.2Z"/><path class="a" d="M1037.7,429.2h0a3.9,3.9,0,0,1-3.9-3.9V394.9a3.9,3.9,0,0,1,3.9-3.9h0a3.9,3.9,0,0,1,3.9,3.9v30.4A3.842,3.842,0,0,1,1037.7,429.2Z"/><path class="a" d="M1021.2,409.7h0a3.691,3.691,0,0,1,3.7-3.7h28.3a3.691,3.691,0,0,1,3.7,3.7h0a3.691,3.691,0,0,1-3.7,3.7h-28.3A3.691,3.691,0,0,1,1021.2,409.7Z"/><path class="a" d="M1026.5,422.7h0a3.744,3.744,0,0,1,0-5.2l20-20a3.744,3.744,0,0,1,5.2,0h0a3.744,3.744,0,0,1,0,5.2l-20,20A3.744,3.744,0,0,1,1026.5,422.7Z"/><path class="a" d="M1051.6,423.6h0a4.046,4.046,0,0,1-5.6,0l-21.5-21.5a4.047,4.047,0,0,1,0-5.6h0a4.046,4.046,0,0,1,5.6,0l21.5,21.5A3.866,3.866,0,0,1,1051.6,423.6Z"/><path class="a" d="M1079.8,448.3h0a3.9,3.9,0,0,1-3.9-3.9V414a3.9,3.9,0,0,1,3.9-3.9h0a3.9,3.9,0,0,1,3.9,3.9v30.4A3.971,3.971,0,0,1,1079.8,448.3Z"/><path class="a" d="M1063.3,428.9h0a3.691,3.691,0,0,1,3.7-3.7h28.3a3.691,3.691,0,0,1,3.7,3.7h0a3.691,3.691,0,0,1-3.7,3.7H1067A3.756,3.756,0,0,1,1063.3,428.9Z"/><path class="a" d="M1068.5,441.8h0a3.744,3.744,0,0,1,0-5.2l20-20a3.744,3.744,0,0,1,5.2,0h0a3.744,3.744,0,0,1,0,5.2l-20,20A3.744,3.744,0,0,1,1068.5,441.8Z"/><path class="a" d="M1093.7,442.7h0a4.046,4.046,0,0,1-5.6,0l-21.5-21.5a4.047,4.047,0,0,1,0-5.6h0a4.046,4.046,0,0,1,5.6,0l21.5,21.5A4.047,4.047,0,0,1,1093.7,442.7Z"/></g></svg>