<svg xmlns="http://www.w3.org/2000/svg" viewBox="1997 2895 278.1 247.376"><defs><style>.a{fill:#fff;}</style></defs><g transform="translate(1997 2895)"><path class="a" d="M211.6,50.6a69.871,69.871,0,0,0-11.3.9C191.2,21.7,162.9,0,129.5,0c-40.9,0-74,32.4-74,72.3a72.035,72.035,0,0,0,.8,10.5,58.485,58.485,0,0,0-6-.4C22.5,82.4,0,104.4,0,131.6s22.5,49.2,50.3,49.2H76.4V169.7H68.1c-22.2,0-40.2-17.6-40.2-39.3s18-39.3,40.2-39.3a38.662,38.662,0,0,1,4.8.3,57.271,57.271,0,0,1-.6-8.4c0-31.9,26.5-57.8,59.1-57.8,26.8,0,49.3,17.4,56.6,41.2a52.934,52.934,0,0,1,9-.7c29.4,0,53.2,23.3,53.2,52,0,27.5-21.9,50.1-49.6,51.9v11.2h10.9c36.8,0,66.6-29.1,66.6-65.1S248.3,50.6,211.6,50.6Z"/><path class="a" d="M111.4,246.7l35.4-35.6a2.27,2.27,0,0,0-1.6-3.9h-2.8a2.284,2.284,0,0,1-1.8-3.7l18.8-23.7a2.284,2.284,0,0,0-1.8-3.7h-9.4a2.284,2.284,0,0,1-1.8-3.7l24-31.9a2.311,2.311,0,0,0-1.8-3.7H130.7a2.332,2.332,0,0,0-2.1,1.3l-18.5,37.5a2.3,2.3,0,0,0,2.1,3.3h8.6a2.333,2.333,0,0,1,2.1,3.3l-12.7,25.7a2.3,2.3,0,0,0,2.1,3.3h8.1a2.333,2.333,0,0,1,2.1,3.3L107.7,244A2.327,2.327,0,0,0,111.4,246.7Z"/></g></svg>